<svg xmlns="http://www.w3.org/2000/svg" width="25" height="25" viewBox="0 0 16 16">
  <g fill="none" fill-rule="evenodd" stroke="currentColor">
      <path fill="currentColor" d="M9.127 5.37L7.423 7.073l1.704 1.703c.13.13.13.348 0 .477-.073.073-.146.092-.237.092-.092 0-.165-.038-.238-.092L6.946 7.55 5.239 9.253c-.073.073-.146.092-.237.092-.092 0-.165-.038-.238-.092-.13-.129-.13-.348 0-.477l1.705-1.703L4.764 5.37c-.13-.13-.13-.348 0-.477.129-.13.348-.13.477 0l1.705 1.703L8.65 4.893c.13-.13.348-.13.477 0 .13.129.13.329 0 .477z" transform="translate(1 1)"/>
  </g>
</svg>