<svg xmlns="http://www.w3.org/2000/svg" width="20" height="20" viewBox="0 0 17 17">
    <path fill="currentColor" stroke="currentColor" d="M15.908 15.467l-4.564-4.565c.948-1.052 1.531-2.44 1.531-3.965C12.875 3.664 10.211 1 6.938 1 3.664 1 1 3.664 1 6.938c0 3.273 2.664 5.937 5.938 5.937 1.524 0 2.912-.583 3.965-1.53l4.564 4.563c.06.061.14.092.22.092.08 0 .16-.03.221-.092.123-.122.123-.32 0-.441zm-8.97-3.217c-2.93 0-5.313-2.383-5.313-5.312 0-2.93 2.383-5.313 5.313-5.313 2.929 0 5.312 2.383 5.312 5.313 0 2.929-2.383 5.312-5.312 5.312z"/>
</svg>
